<?xml version="1.0" encoding="UTF-8"?>
<svg xmlns="http://www.w3.org/2000/svg" version="1.1" xmlns:xlink="http://www.w3.org/1999/xlink" viewBox="0 0 800 800">
  <!-- Generator: Adobe Illustrator 30.0.0, SVG Export Plug-In . SVG Version: 2.1.1 Build 123)  -->
  <defs>
    <style>
      .st0 {
        fill: #fff;
      }

      .st1 {
        fill: none;
      }

      .st2 {
        clip-path: url(#clippath-1);
      }

      .st3 {
        fill: #f2a622;
      }

      .st4 {
        clip-path: url(#clippath-3);
      }

      .st5 {
        fill: #000100;
      }

      .st6 {
        clip-path: url(#clippath-2);
      }

      .st7 {
        clip-path: url(#clippath);
      }

      .st8 {
        fill: #00a5df;
      }
    </style>
    <clipPath id="clippath">
      <rect class="st1" x="-126.98" y="-63.72" width="522.08" height="489.19"/>
    </clipPath>
    <clipPath id="clippath-1">
      <rect class="st1" x="395.11" y="-23.89" width="522.08" height="489.19"/>
    </clipPath>
    <clipPath id="clippath-2">
      <rect class="st1" x="-126.98" y="-63.72" width="522.08" height="489.19"/>
    </clipPath>
    <clipPath id="clippath-3">
      <rect class="st1" x="395.11" y="-23.89" width="522.08" height="489.19"/>
    </clipPath>
  </defs>
  <g id="uuid-edb8795d-ec3f-4a81-9d87-af2cc0bcdddd">
    <g>
      <rect class="st0" x="111.4" y="463.77" width="576" height="275.18"/>
      <rect class="st0" x="395.11" y="-23.89" width="522.08" height="489.19"/>
      <rect class="st0" x="-126.98" y="-23.89" width="522.08" height="489.19"/>
      <g id="uuid-cc83a99f-5478-4bec-b16c-de4e4ceb67a7">
        <g>
          <rect class="st0" x="-1120" y="-73.61" width="1000" height="947.22"/>
          <g>
            <path class="st0" d="M-1075.74,189.32c15.25-5.11,16.75,13.77,24.23,21.38,15.12,15.37,45.8,17.8,65.78,11.78,11.21-3.38,26.21-20.75,36.98-18.82,2.3.41,18.08,21.88,23.9,25.87,18.83,12.9,51.91,17.65,74.23,14.97,15.41-1.85,41.26-19.71,54.71-19.89,11.28-.15,16.28,14.57,25.47,16.69,71.93,16.62,85.31-85.79,55.29-132.47-5.92-9.21-34.75-33.34-41.83-15.84-2.49,6.14,1.74,46.47-14.76,21.65-6.95-10.45-10.84-20.53-24.03-27.83-20.03-11.08-55.24-12.39-76.23-4.4-7.34,2.8-25.97,21.31-31.06,18.51-2.68-1.47-3.26-37.16-19.54-46.96-6.28-3.78-12.3-3.6-19.07-.64-2.21.96-10.21,10.27-11.34,10.09-7.4-1.17-3.77-19.66-4.77-25.55-3.81-22.47-18.59-57.81-44.29-61.42-2.18-.31-25.4,1.52-27.16,2.14-.5.18-4.96,7.84-7.46,7.44-6.57-1.8-3.96-8.15-8.29-8.02-18.07-5.3-39.02,1.29-54.45,10.36-7.28,4.66-16.96,8.66-20.58,16.97v235.06l23.13-20.54,21.13-30.51v-.02Z"/>
            <path class="st0" d="M-1120-73.48V-16.16c8.69-4.44,16.73-11.13,25.94-14.6,11.51-4.33,34.79-9.41,46.91-7.47,5.43.87,11.82,8.01,18.89,7.49,3.91-.29,3.93-4.27,6.6-4.86,4.23-.94,8.66-.72,12.96-.61,7.19.18,14.58,1.2,21.02,4.43,13.27,6.65,27.66,29.36,31.88,40.85,1.83,4.99,3.39,10.07,4.74,15.21,1.24,4.73,2.3,9.51,3.2,14.32,0,.06.16.73.14.74,29.19-11.32,46.59,16.1,50.78,41.9,33.03-27.85,90.6-24.05,121.38,6,2.18,2.13,5.33,8.81,5.83,8.67,1.83-.51,2.66-26.27,24.14-24.14,11.1,1.1,26.65,12.97,33.55,22.47,25.56,35.18,29.63,100.37,7.44,135.35-12.35,19.47-44.38,34.34-66.49,26.85-9.93-3.36-14.95-13.24-24.81-16.16-12.07,1.82-22.52,10.32-33.76,13.67-38.61,11.49-85.37,5.9-114.09-24.38-.36-.38-3.64-8.52-5.23-9.12-8.12-3.07-10.13,4.16-15.43,6.95-31.34,16.51-69.01,20.35-94.52-7.25-3.57-3.86-6.88-15.69-11.56-14.69l-28.92,36.73c-4.75,2.64-20.59,21.65-20.59,21.65v145.12h209.43l27.22-52.36c7.62-2.18,9.87,3.97,10.45,9.71l-24.05,42.65h271.2V-73.48c-164.74-.13-329.52.09-494.25,0ZM-1079.1,305.02c-3.47,7.71-6.11,19.33-9.77,26.67-1.52,3.05-9.04,18.66-14.36,13.39-1.56-1.55,6.29-24.02,7.6-27.49,2.08-5.51,14.12-33.18,16.79-37.15,2.52-3.74,3.29-5.23,7.79-4.13,12.17,2.97-6.04,24.27-8.04,28.71h-.01ZM-1025.23,332.51c1.06-5.29,11.19-35.19,15.76-35.64,3.73-.37,3.8,2.63,5.15,4.8,1.22,1.95,2.12.84,1.54,4.92-1.28,9.01-14.49,27.14-15.73,37.67-11.27,14.17-8.58-2.53-6.72-11.74h0ZM-999.06,395.48c-8.68.08-4.26-10.81-2.49-16.04,3.05-9.01,19.58-46.87,23.66-17.89-6.38,4.23-15.07,33.87-21.17,33.93h0ZM-956.99,398.35c-1.85-.8-.77-36.96,10.53-34.08,7.84,2-.95,38.24-10.53,34.08h0ZM-922.03,331.42c-3.19-2.15,5.73-40.06,12.5-34.51.47.39,3.25,10.38,3.12,11.79-.21,2.28-9.05,27.16-15.62,22.72ZM-843.73,393.05c-.77.42-5.89.4-6.11.19-6.43-6.32,15.79-39.08,19.6-45.8,1.34-2.37,6.65-18.69,9.74-19.11,1.78-.24.58,1.42,1.28,1.8,1.31.71,6.9,3.64,7.11,6.23.26,3.24-28.77,55.13-31.62,56.69Z"/>
          </g>
          <path class="st0" d="M-120.02,283.35c-64.45,33.4-135.85,29.84-191.84-17.81-34.89-29.7-62.55-75.86-38.45-121.66,14.69-27.92,105.88-86.82,135.98-75.63,5.05,1.88,6.36,10.23,2.15,12.55-3.24,1.79-5.04-3.09-8.08-3.5-27.47-3.69-96.28,39.57-114.01,60.91-55.41,66.69,44.11,150.05,108.05,156.55,34.99,3.56,78.74-4.07,106.2-26.64V74.64c-15.9-7.62-35.02-12.22-52.86-13.31-5.62-.34-38.8,3.23-39.33-2.58-.02-.26,1.9-4.57,2.13-4.69,2.87-1.61,39.17-2.52,44.49-2.11,14.52,1.11,32.76,5.64,45.56,12.57V-73.48h-139.8c-5.09,0,8.93,56.28,6.64,60.33-5.01,8.84-10.65-13.85-11.23-16.17-2.34-9.4-3-35.89-5.32-41.57-.58-1.43-2.57-2.23-3.79-2.59-117.41-.29-354.35,0-354.35,0v484.22H-234.17c2.33-7.26,14.19-62.85,18.35-63.6,1.59-.29,2.59.73,3.73,1.57,9.18,6.77-12.56,50.6-10.55,62.03l102.63-2.02c-.09-41.51.08-83.86,0-125.37h0ZM-478.2,13.67c6.37-4.52,10.02,2.81,10.87,3.36,11.26,7.28,72.43,65.98,80.6,76.95,4.28,5.75,8.98,11.28-3.69,6.86-9.54-3.32-65.75-62.2-77.63-73.65-1.42-1.36-16.85-8.76-10.15-13.52h0ZM-439.96,238.35c-27.49-1.34-75.59-2.16-100.23-10.76-4.34-1.52-17.1-5.67-16.02-11.36,1.42-7.44,16.94.3,22.23,1.52,31.55,7.3,59.37,4.59,89.54,10.42,4.65.9,16.04,2.01,16.51,6.37.59,5.49-7.97,4.01-12.03,3.81h0ZM-343.48,300.74c-11.75,19.62-30.99,37.47-44.15,55.87-4.59,6.41-12.48,24.74-15.02,27.61-1.41,1.6-7.39,2.03-8.33.54-7.97-12.73,56.11-81.16,60.81-97.01,13.43-.95,12.32,3.6,6.7,12.99h0Z"/>
          <path class="st0" d="M-1120,408.72v464.89H-120.02v-464.89h-999.98ZM-955.67,803.95h-76.44v-325.63h76.44v325.63ZM-478.19,803.95h-75.39v-227.21l-102.72,225.53c-5.06,4.22-33.15.24-41.29,1.75l-98.92-227.29v227.21h-62.83v-325.63h90.05l97.9,233.5,108.37-233.5h84.81v325.63h.02ZM-363.26,799.48c-7.06-2.44-43.19-19.58-43.53-26.41-.13-2.55,26.22-41.79,28.73-42.27,1.87-.36,26.71,16.74,32.86,19.2,29.41,11.75,82.08,11.33,81.75-31.39-.42-55.29-123.08-79.48-128.86-155-4.26-55.71,47.38-86.89,97.15-90.21,27.27-1.82,59.63,3.56,83.24,17.68,2.67,1.6,17.19,11.94,17.28,13.92.11,2.42-26.36,38.71-28.75,39.1-1.85.3-25.94-14.09-33.88-16.05-21.78-5.35-59.63-3.84-57.63,27.25,1.52,23.55,62.16,60.82,80.68,77.44,119.04,106.79-6.44,209.02-129.05,166.74h.01Z"/>
        </g>
      </g>
      <g class="st7">
        <g>
          <rect class="st0" x="5.32" y="17.65" width="411.49" height="401.7"/>
          <g>
            <path class="st0" d="M42.17,236.48c12.7-4.25,13.95,11.46,20.17,17.8,12.59,12.8,38.13,14.82,54.77,9.81,9.33-2.81,21.82-17.28,30.79-15.67,1.91.34,15.05,18.22,19.9,21.54,15.68,10.74,43.22,14.69,61.8,12.46,12.83-1.54,34.35-16.41,45.55-16.56,9.39-.12,13.55,12.13,21.21,13.9,59.89,13.84,71.03-71.43,46.03-110.29-4.93-7.67-28.93-27.76-34.83-13.19-2.07,5.11,1.45,38.69-12.29,18.02-5.79-8.7-9.02-17.09-20.01-23.17-16.68-9.22-45.99-10.32-63.47-3.66-6.11,2.33-21.62,17.74-25.86,15.41-2.23-1.22-2.71-30.94-16.27-39.1-5.23-3.15-10.24-3-15.88-.53-1.84.8-8.5,8.55-9.44,8.4-6.16-.97-3.14-16.37-3.97-21.27-3.17-18.71-15.48-48.13-36.87-51.14-1.81-.26-21.15,1.27-22.61,1.78-.42.15-4.13,6.53-6.21,6.19-5.47-1.5-3.3-6.79-6.9-6.68-15.04-4.41-32.49,1.07-45.33,8.63-6.06,3.88-14.12,7.21-17.13,14.13v195.7l19.26-17.1,17.59-25.4v-.02Z"/>
            <path class="st0" d="M5.32,17.68v47.72c7.23-3.7,13.93-9.27,21.6-12.16,9.58-3.6,28.96-7.83,39.06-6.22,4.52.72,9.84,6.67,15.73,6.24,3.26-.24,3.27-3.56,5.49-4.05,3.52-.78,7.21-.6,10.79-.51,5.99.15,12.14,1,17.5,3.69,11.05,5.54,23.03,24.44,26.54,34.01,1.52,4.15,2.82,8.38,3.95,12.66,1.03,3.94,1.91,7.92,2.66,11.92,0,.05.13.61.12.62,24.3-9.42,38.79,13.4,42.28,34.88,27.5-23.19,75.43-20.02,101.06,5,1.81,1.77,4.44,7.33,4.85,7.22,1.52-.42,2.21-21.87,20.1-20.1,9.24.92,22.19,10.8,27.93,18.71,21.28,29.29,24.67,83.56,6.19,112.69-10.28,16.21-36.95,28.59-55.36,22.35-8.27-2.8-12.45-11.02-20.66-13.45-10.05,1.52-18.75,8.59-28.11,11.38-32.15,9.57-71.08,4.91-94.99-20.3-.3-.32-3.03-7.09-4.35-7.59-6.76-2.56-8.43,3.46-12.85,5.79-26.09,13.75-57.46,16.94-78.69-6.04-2.97-3.21-5.73-13.06-9.62-12.23l-24.08,30.58c-3.95,2.2-17.14,18.02-17.14,18.02v120.82h174.36l22.66-43.59c6.34-1.81,8.22,3.31,8.7,8.08l-20.02,35.51h225.79V17.68c-137.16-.11-274.35.07-411.49,0ZM39.37,332.81c-2.89,6.42-5.09,16.09-8.13,22.2-1.27,2.54-7.53,15.54-11.96,11.15-1.3-1.29,5.24-20,6.33-22.89,1.73-4.59,11.76-27.62,13.98-30.93,2.1-3.11,2.74-4.35,6.49-3.44,10.13,2.47-5.03,20.21-6.69,23.9h0ZM84.22,355.69c.88-4.4,9.32-29.3,13.12-29.67,3.11-.31,3.16,2.19,4.29,4,1.02,1.62,1.77.7,1.28,4.1-1.07,7.5-12.06,22.6-13.1,31.36-9.38,11.8-7.14-2.11-5.59-9.77h0ZM106.01,408.12c-7.23.07-3.55-9-2.07-13.35,2.54-7.5,16.3-39.02,19.7-14.89-5.31,3.52-12.55,28.2-17.63,28.25h0ZM141.04,410.51c-1.54-.67-.64-30.77,8.77-28.37,6.53,1.67-.79,31.84-8.77,28.37h0ZM170.14,354.79c-2.66-1.79,4.77-33.35,10.41-28.73.39.32,2.71,8.64,2.6,9.82-.17,1.9-7.53,22.61-13,18.92ZM235.33,406.1c-.64.35-4.9.33-5.09.16-5.35-5.26,13.15-32.54,16.32-38.13,1.12-1.97,5.54-15.56,8.11-15.91,1.48-.2.48,1.18,1.07,1.5,1.09.59,5.74,3.03,5.92,5.19.22,2.7-23.95,45.9-26.33,47.2Z"/>
          </g>
        </g>
      </g>
      <g class="st2">
        <g>
          <rect class="st0" x="374.06" y="54.66" width="392.87" height="372.84" transform="translate(-45.46 176.42) rotate(-16.92)"/>
          <path class="st0" d="M785.63,273.41c-40.74,39.77-95.12,53.39-148.01,30.41-32.96-14.32-64.24-42.65-56.61-82.51,4.65-24.3,59.63-89.3,84.77-87.78,4.22.26,7.11,6.22,4.48,8.93-2.02,2.08-4.49-1.17-6.86-.78-21.45,3.5-63.21,51.66-71.65,71.72-26.36,62.68,67.34,102.52,116.8,92.81,27.07-5.31,58.15-21.02,73.61-44.22l-44.15-145.17c-13.67-2.09-29.06-1.18-42.7,2.08-4.29,1.03-28.38,11.28-30.1,7.04-.07-.19.38-3.86.53-4.01,1.79-1.86,28.82-10.83,32.9-11.74,11.15-2.48,25.87-3.24,37.05-.96l-31.49-103.54-104.9,31.9c-3.82,1.16,19.54,40.19,18.75,43.75-1.74,7.78-11.15-7.96-12.12-9.57-3.9-6.52-10.44-26.24-13.48-29.98-.76-.94-2.44-1.09-3.43-1.08-88.16,26.57-265.88,80.86-265.88,80.86l110.49,363.32,295.41-89.84c.09-5.98-3.69-50.4-.74-51.91,1.13-.58,2.11-.04,3.16.33,8.43,2.98,2.12,40.83,6.24,48.95l76.54-24.93c-9.54-31.13-19.08-62.94-28.61-94.07h0ZM455.34,152.79c3.75-4.85,8.16-.18,8.92.04,10.11,2.89,69.4,32.98,78.04,39.35,4.52,3.34,9.31,6.41-1.2,5.99-7.92-.31-63.53-31.67-75.05-37.55-1.38-.7-14.64-2.73-10.7-7.83h0ZM535.3,312.65c-20.93,5.27-57.21,15.63-77.66,14.8-3.6-.15-14.12-.35-14.61-4.87-.63-5.91,12.78-3.64,17.03-3.93,25.34-1.72,45.59-10.1,69.56-12.61,3.69-.39,12.49-2.15,13.84,1.01,1.7,3.98-5.07,4.83-8.16,5.6h0ZM621.93,337.45c-4.34,17.4-14.7,35.19-20.38,52-1.98,5.86-3.72,21.41-4.97,24.14-.69,1.52-5.08,3.21-6.13,2.31-8.88-7.73,23.58-73.7,23.49-86.67,9.86-3.78,10.07-.11,7.99,8.22h0Z"/>
        </g>
      </g>
      <path class="st0" d="M90.02,450.74v288.2h619.93v-288.2H90.02ZM191.9,695.76h-47.39v-201.87h47.39v201.87ZM487.91,695.76h-46.74v-140.86l-63.68,139.82c-3.14,2.62-20.55.15-25.6,1.08l-61.32-140.91v140.86h-38.95v-201.87h55.83l60.69,144.76,67.18-144.76h52.58v201.87h.01ZM559.16,692.99c-4.38-1.51-26.78-12.14-26.99-16.37-.08-1.58,16.25-25.91,17.81-26.2,1.16-.22,16.56,10.38,20.37,11.9,18.23,7.28,50.88,7.02,50.68-19.46-.26-34.28-76.3-49.27-79.89-96.09-2.64-34.54,29.37-53.87,60.23-55.92,16.91-1.13,36.97,2.21,51.6,10.96,1.66.99,10.66,7.4,10.71,8.63.07,1.5-16.34,24-17.82,24.24-1.15.19-16.08-8.73-21-9.95-13.5-3.32-36.97-2.38-35.73,16.89.94,14.6,38.54,37.7,50.02,48.01,73.8,66.2-3.99,129.58-80,103.37h0Z"/>
      <rect class="st0" x="122.95" y="709.45" width="587" height="90.6"/>
      <rect class="st0" x="709.95" y="450.74" width="293.96" height="293.96"/>
      <rect class="st0" x="-193.88" y="450.74" width="293.96" height="293.96"/>
    </g>
    <g>
      <rect class="st0" x="111.4" y="463.77" width="576" height="275.18"/>
      <rect class="st3" x="395.11" y="-23.89" width="522.08" height="489.19"/>
      <rect class="st8" x="-126.98" y="-23.89" width="522.08" height="489.19"/>
      <g id="uuid-cc83a99f-5478-4bec-b16c-de4e4ceb67a71" data-name="uuid-cc83a99f-5478-4bec-b16c-de4e4ceb67a7">
        <g>
          <rect class="st0" x="-1120" y="-73.61" width="1000" height="947.22"/>
          <g>
            <path class="st8" d="M-1075.74,189.32c15.25-5.11,16.75,13.77,24.23,21.38,15.12,15.37,45.8,17.8,65.78,11.78,11.21-3.38,26.21-20.75,36.98-18.82,2.3.41,18.08,21.88,23.9,25.87,18.83,12.9,51.91,17.65,74.23,14.97,15.41-1.85,41.26-19.71,54.71-19.89,11.28-.15,16.28,14.57,25.47,16.69,71.93,16.62,85.31-85.79,55.29-132.47-5.92-9.21-34.75-33.34-41.83-15.84-2.49,6.14,1.74,46.47-14.76,21.65-6.95-10.45-10.84-20.53-24.03-27.83-20.03-11.08-55.24-12.39-76.23-4.4-7.34,2.8-25.97,21.31-31.06,18.51-2.68-1.47-3.26-37.16-19.54-46.96-6.28-3.78-12.3-3.6-19.07-.64-2.21.96-10.21,10.27-11.34,10.09-7.4-1.17-3.77-19.66-4.77-25.55-3.81-22.47-18.59-57.81-44.29-61.42-2.18-.31-25.4,1.52-27.16,2.14-.5.18-4.96,7.84-7.46,7.44-6.57-1.8-3.96-8.15-8.29-8.02-18.07-5.3-39.02,1.29-54.45,10.36-7.28,4.66-16.96,8.66-20.58,16.97v235.06l23.13-20.54,21.13-30.51v-.02Z"/>
            <path class="st8" d="M-1120-73.48V-16.16c8.69-4.44,16.73-11.13,25.94-14.6,11.51-4.33,34.79-9.41,46.91-7.47,5.43.87,11.82,8.01,18.89,7.49,3.91-.29,3.93-4.27,6.6-4.86,4.23-.94,8.66-.72,12.96-.61,7.19.18,14.58,1.2,21.02,4.43,13.27,6.65,27.66,29.36,31.88,40.85,1.83,4.99,3.39,10.07,4.74,15.21,1.24,4.73,2.3,9.51,3.2,14.32,0,.06.16.73.14.74,29.19-11.32,46.59,16.1,50.78,41.9,33.03-27.85,90.6-24.05,121.38,6,2.18,2.13,5.33,8.81,5.83,8.67,1.83-.51,2.66-26.27,24.14-24.14,11.1,1.1,26.65,12.97,33.55,22.47,25.56,35.18,29.63,100.37,7.44,135.35-12.35,19.47-44.38,34.34-66.49,26.85-9.93-3.36-14.95-13.24-24.81-16.16-12.07,1.82-22.52,10.32-33.76,13.67-38.61,11.49-85.37,5.9-114.09-24.38-.36-.38-3.64-8.52-5.23-9.12-8.12-3.07-10.13,4.16-15.43,6.95-31.34,16.51-69.01,20.35-94.52-7.25-3.57-3.86-6.88-15.69-11.56-14.69l-28.92,36.73c-4.75,2.64-20.59,21.65-20.59,21.65v145.12h209.43l27.22-52.36c7.62-2.18,9.87,3.97,10.45,9.71l-24.05,42.65h271.2V-73.48c-164.74-.13-329.52.09-494.25,0ZM-1079.1,305.02c-3.47,7.71-6.11,19.33-9.77,26.67-1.52,3.05-9.04,18.66-14.36,13.39-1.56-1.55,6.29-24.02,7.6-27.49,2.08-5.51,14.12-33.18,16.79-37.15,2.52-3.74,3.29-5.23,7.79-4.13,12.17,2.97-6.04,24.27-8.04,28.71h-.01ZM-1025.23,332.51c1.06-5.29,11.19-35.19,15.76-35.64,3.73-.37,3.8,2.63,5.15,4.8,1.22,1.95,2.12.84,1.54,4.92-1.28,9.01-14.49,27.14-15.73,37.67-11.27,14.17-8.58-2.53-6.72-11.74h0ZM-999.06,395.48c-8.68.08-4.26-10.81-2.49-16.04,3.05-9.01,19.58-46.87,23.66-17.89-6.38,4.23-15.07,33.87-21.17,33.93h0ZM-956.99,398.35c-1.85-.8-.77-36.96,10.53-34.08,7.84,2-.95,38.24-10.53,34.08h0ZM-922.03,331.42c-3.19-2.15,5.73-40.06,12.5-34.51.47.39,3.25,10.38,3.12,11.79-.21,2.28-9.05,27.16-15.62,22.72ZM-843.73,393.05c-.77.42-5.89.4-6.11.19-6.43-6.32,15.79-39.08,19.6-45.8,1.34-2.37,6.65-18.69,9.74-19.11,1.78-.24.58,1.42,1.28,1.8,1.31.71,6.9,3.64,7.11,6.23.26,3.24-28.77,55.13-31.62,56.69Z"/>
          </g>
          <path class="st3" d="M-120.02,283.35c-64.45,33.4-135.85,29.84-191.84-17.81-34.89-29.7-62.55-75.86-38.45-121.66,14.69-27.92,105.88-86.82,135.98-75.63,5.05,1.88,6.36,10.23,2.15,12.55-3.24,1.79-5.04-3.09-8.08-3.5-27.47-3.69-96.28,39.57-114.01,60.91-55.41,66.69,44.11,150.05,108.05,156.55,34.99,3.56,78.74-4.07,106.2-26.64V74.64c-15.9-7.62-35.02-12.22-52.86-13.31-5.62-.34-38.8,3.23-39.33-2.58-.02-.26,1.9-4.57,2.13-4.69,2.87-1.61,39.17-2.52,44.49-2.11,14.52,1.11,32.76,5.64,45.56,12.57V-73.48h-139.8c-5.09,0,8.93,56.28,6.64,60.33-5.01,8.84-10.65-13.85-11.23-16.17-2.34-9.4-3-35.89-5.32-41.57-.58-1.43-2.57-2.23-3.79-2.59-117.41-.29-354.35,0-354.35,0v484.22H-234.17c2.33-7.26,14.19-62.85,18.35-63.6,1.59-.29,2.59.73,3.73,1.57,9.18,6.77-12.56,50.6-10.55,62.03l102.63-2.02c-.09-41.51.08-83.86,0-125.37h0ZM-478.2,13.67c6.37-4.52,10.02,2.81,10.87,3.36,11.26,7.28,72.43,65.98,80.6,76.95,4.28,5.75,8.98,11.28-3.69,6.86-9.54-3.32-65.75-62.2-77.63-73.65-1.42-1.36-16.85-8.76-10.15-13.52h0ZM-439.96,238.35c-27.49-1.34-75.59-2.16-100.23-10.76-4.34-1.52-17.1-5.67-16.02-11.36,1.42-7.44,16.94.3,22.23,1.52,31.55,7.3,59.37,4.59,89.54,10.42,4.65.9,16.04,2.01,16.51,6.37.59,5.49-7.97,4.01-12.03,3.81h0ZM-343.48,300.74c-11.75,19.62-30.99,37.47-44.15,55.87-4.59,6.41-12.48,24.74-15.02,27.61-1.41,1.6-7.39,2.03-8.33.54-7.97-12.73,56.11-81.16,60.81-97.01,13.43-.95,12.32,3.6,6.7,12.99h0Z"/>
          <path class="st5" d="M-1120,408.72v464.89H-120.02v-464.89h-999.98ZM-955.67,803.95h-76.44v-325.63h76.44v325.63ZM-478.19,803.95h-75.39v-227.21l-102.72,225.53c-5.06,4.22-33.15.24-41.29,1.75l-98.92-227.29v227.21h-62.83v-325.63h90.05l97.9,233.5,108.37-233.5h84.81v325.63h.02ZM-363.26,799.48c-7.06-2.44-43.19-19.58-43.53-26.41-.13-2.55,26.22-41.79,28.73-42.27,1.87-.36,26.71,16.74,32.86,19.2,29.41,11.75,82.08,11.33,81.75-31.39-.42-55.29-123.08-79.48-128.86-155-4.26-55.71,47.38-86.89,97.15-90.21,27.27-1.82,59.63,3.56,83.24,17.68,2.67,1.6,17.19,11.94,17.28,13.92.11,2.42-26.36,38.71-28.75,39.1-1.85.3-25.94-14.09-33.88-16.05-21.78-5.35-59.63-3.84-57.63,27.25,1.52,23.55,62.16,60.82,80.68,77.44,119.04,106.79-6.44,209.02-129.05,166.74h.01Z"/>
        </g>
      </g>
      <g class="st6">
        <g>
          <rect class="st0" x="5.32" y="17.65" width="411.49" height="401.7"/>
          <g>
            <path class="st8" d="M42.17,236.48c12.7-4.25,13.95,11.46,20.17,17.8,12.59,12.8,38.13,14.82,54.77,9.81,9.33-2.81,21.82-17.28,30.79-15.67,1.91.34,15.05,18.22,19.9,21.54,15.68,10.74,43.22,14.69,61.8,12.46,12.83-1.54,34.35-16.41,45.55-16.56,9.39-.12,13.55,12.13,21.21,13.9,59.89,13.84,71.03-71.43,46.03-110.29-4.93-7.67-28.93-27.76-34.83-13.19-2.07,5.11,1.45,38.69-12.29,18.02-5.79-8.7-9.02-17.09-20.01-23.17-16.68-9.22-45.99-10.32-63.47-3.66-6.11,2.33-21.62,17.74-25.86,15.41-2.23-1.22-2.71-30.94-16.27-39.1-5.23-3.15-10.24-3-15.88-.53-1.84.8-8.5,8.55-9.44,8.4-6.16-.97-3.14-16.37-3.97-21.27-3.17-18.71-15.48-48.13-36.87-51.14-1.81-.26-21.15,1.27-22.61,1.78-.42.15-4.13,6.53-6.21,6.19-5.47-1.5-3.3-6.79-6.9-6.68-15.04-4.41-32.49,1.07-45.33,8.63-6.06,3.88-14.12,7.21-17.13,14.13v195.7l19.26-17.1,17.59-25.4v-.02Z"/>
            <path class="st8" d="M5.32,17.68v47.72c7.23-3.7,13.93-9.27,21.6-12.16,9.58-3.6,28.96-7.83,39.06-6.22,4.52.72,9.84,6.67,15.73,6.24,3.26-.24,3.27-3.56,5.49-4.05,3.52-.78,7.21-.6,10.79-.51,5.99.15,12.14,1,17.5,3.69,11.05,5.54,23.03,24.44,26.54,34.01,1.52,4.15,2.82,8.38,3.95,12.66,1.03,3.94,1.91,7.92,2.66,11.92,0,.05.13.61.12.62,24.3-9.42,38.79,13.4,42.28,34.88,27.5-23.19,75.43-20.02,101.06,5,1.81,1.77,4.44,7.33,4.85,7.22,1.52-.42,2.21-21.87,20.1-20.1,9.24.92,22.19,10.8,27.93,18.71,21.28,29.29,24.67,83.56,6.19,112.69-10.28,16.21-36.95,28.59-55.36,22.35-8.27-2.8-12.45-11.02-20.66-13.45-10.05,1.52-18.75,8.59-28.11,11.38-32.15,9.57-71.08,4.91-94.99-20.3-.3-.32-3.03-7.09-4.35-7.59-6.76-2.56-8.43,3.46-12.85,5.79-26.09,13.75-57.46,16.94-78.69-6.04-2.97-3.21-5.73-13.06-9.62-12.23l-24.08,30.58c-3.95,2.2-17.14,18.02-17.14,18.02v120.82h174.36l22.66-43.59c6.34-1.81,8.22,3.31,8.7,8.08l-20.02,35.51h225.79V17.68c-137.16-.11-274.35.07-411.49,0ZM39.37,332.81c-2.89,6.42-5.09,16.09-8.13,22.2-1.27,2.54-7.53,15.54-11.96,11.15-1.3-1.29,5.24-20,6.33-22.89,1.73-4.59,11.76-27.62,13.98-30.93,2.1-3.11,2.74-4.35,6.49-3.44,10.13,2.47-5.03,20.21-6.69,23.9h0ZM84.22,355.69c.88-4.4,9.32-29.3,13.12-29.67,3.11-.31,3.16,2.19,4.29,4,1.02,1.62,1.77.7,1.28,4.1-1.07,7.5-12.06,22.6-13.1,31.36-9.38,11.8-7.14-2.11-5.59-9.77h0ZM106.01,408.12c-7.23.07-3.55-9-2.07-13.35,2.54-7.5,16.3-39.02,19.7-14.89-5.31,3.52-12.55,28.2-17.63,28.25h0ZM141.04,410.51c-1.54-.67-.64-30.77,8.77-28.37,6.53,1.67-.79,31.84-8.77,28.37h0ZM170.14,354.79c-2.66-1.79,4.77-33.35,10.41-28.73.39.32,2.71,8.64,2.6,9.82-.17,1.9-7.53,22.61-13,18.92ZM235.33,406.1c-.64.35-4.9.33-5.09.16-5.35-5.26,13.15-32.54,16.32-38.13,1.12-1.97,5.54-15.56,8.11-15.91,1.48-.2.48,1.18,1.07,1.5,1.09.59,5.74,3.03,5.92,5.19.22,2.7-23.95,45.9-26.33,47.2Z"/>
          </g>
        </g>
      </g>
      <g class="st4">
        <g>
          <rect class="st0" x="374.06" y="54.66" width="392.87" height="372.84" transform="translate(-45.46 176.42) rotate(-16.92)"/>
          <path class="st3" d="M785.63,273.41c-40.74,39.77-95.12,53.39-148.01,30.41-32.96-14.32-64.24-42.65-56.61-82.51,4.65-24.3,59.63-89.3,84.77-87.78,4.22.26,7.11,6.22,4.48,8.93-2.02,2.08-4.49-1.17-6.86-.78-21.45,3.5-63.21,51.66-71.65,71.72-26.36,62.68,67.34,102.52,116.8,92.81,27.07-5.31,58.15-21.02,73.61-44.22l-44.15-145.17c-13.67-2.09-29.06-1.18-42.7,2.08-4.29,1.03-28.38,11.28-30.1,7.04-.07-.19.38-3.86.53-4.01,1.79-1.86,28.82-10.83,32.9-11.74,11.15-2.48,25.87-3.24,37.05-.96l-31.49-103.54-104.9,31.9c-3.82,1.16,19.54,40.19,18.75,43.75-1.74,7.78-11.15-7.96-12.12-9.57-3.9-6.52-10.44-26.24-13.48-29.98-.76-.94-2.44-1.09-3.43-1.08-88.16,26.57-265.88,80.86-265.88,80.86l110.49,363.32,295.41-89.84c.09-5.98-3.69-50.4-.74-51.91,1.13-.58,2.11-.04,3.16.33,8.43,2.98,2.12,40.83,6.24,48.95l76.54-24.93c-9.54-31.13-19.08-62.94-28.61-94.07h0ZM455.34,152.79c3.75-4.85,8.16-.18,8.92.04,10.11,2.89,69.4,32.98,78.04,39.35,4.52,3.34,9.31,6.41-1.2,5.99-7.92-.31-63.53-31.67-75.05-37.55-1.38-.7-14.64-2.73-10.7-7.83h0ZM535.3,312.65c-20.93,5.27-57.21,15.63-77.66,14.8-3.6-.15-14.12-.35-14.61-4.87-.63-5.91,12.78-3.64,17.03-3.93,25.34-1.72,45.59-10.1,69.56-12.61,3.69-.39,12.49-2.15,13.84,1.01,1.7,3.98-5.07,4.83-8.16,5.6h0ZM621.93,337.45c-4.34,17.4-14.7,35.19-20.38,52-1.98,5.86-3.72,21.41-4.97,24.14-.69,1.52-5.08,3.21-6.13,2.31-8.88-7.73,23.58-73.7,23.49-86.67,9.86-3.78,10.07-.11,7.99,8.22h0Z"/>
        </g>
      </g>
      <path class="st5" d="M90.02,450.74v288.2h619.93v-288.2H90.02ZM191.9,695.76h-47.39v-201.87h47.39v201.87ZM487.91,695.76h-46.74v-140.86l-63.68,139.82c-3.14,2.62-20.55.15-25.6,1.08l-61.32-140.91v140.86h-38.95v-201.87h55.83l60.69,144.76,67.18-144.76h52.58v201.87h.01ZM559.16,692.99c-4.38-1.51-26.78-12.14-26.99-16.37-.08-1.58,16.25-25.91,17.81-26.2,1.16-.22,16.56,10.38,20.37,11.9,18.23,7.28,50.88,7.02,50.68-19.46-.26-34.28-76.3-49.27-79.89-96.09-2.64-34.54,29.37-53.87,60.23-55.92,16.91-1.13,36.97,2.21,51.6,10.96,1.66.99,10.66,7.4,10.71,8.63.07,1.5-16.34,24-17.82,24.24-1.15.19-16.08-8.73-21-9.95-13.5-3.32-36.97-2.38-35.73,16.89.94,14.6,38.54,37.7,50.02,48.01,73.8,66.2-3.99,129.58-80,103.37h0Z"/>
      <rect x="122.95" y="709.45" width="587" height="90.6"/>
      <rect x="709.95" y="450.74" width="293.96" height="293.96"/>
      <rect x="-193.88" y="450.74" width="293.96" height="293.96"/>
    </g>
  </g>
  <g id="Layer_2">
    <g>
      <path d="M799.99,398.92V.04h-394.24c217.9,3.07,393.66,180.38,394.24,398.88Z"/>
      <path d="M400,800C179.09,800,0,620.91,0,400S175.98,3.12,394.25.04H0v800h800v-398.96c-.58,220.42-179.44,398.92-399.99,398.92Z"/>
    </g>
  </g>
</svg>