<svg width="199" height="150" viewBox="0 0 199 150" fill="none" xmlns="http://www.w3.org/2000/svg">
<path d="M137.47 62.6347C137.47 62.7471 137.445 62.8594 137.42 62.9436H95.3887C95.5647 63.1683 95.5647 63.2245 95.6149 63.2245C108.285 68.4198 120.929 73.6431 133.599 78.8104C134.001 78.9789 134.529 79.0069 134.956 78.9227C142.548 76.985 149.913 74.2891 156.826 70.189C162.055 67.0718 166.882 63.3368 170.401 57.8888C174.096 52.216 175.278 46.0379 172.89 39.3542C171.029 34.187 167.611 30.4239 163.689 27.1663C157.405 21.9429 150.316 18.573 142.9 15.9332C131.11 11.7489 118.968 9.81118 106.625 9.19336C106.173 9.19336 105.67 9.24952 105.268 9.47419C102.075 11.2996 98.8326 12.9845 95.7909 15.0346C93.8804 16.3264 92.1207 18.0113 90.5873 19.8086C88.8528 21.8867 89.2801 23.9649 91.5174 25.3409C93.2268 26.4081 94.9865 27.419 96.7964 28.2615C109.315 34.215 121.834 40.1124 134.378 46.0098C134.805 46.2064 135.233 46.4591 135.66 46.6838C135.635 46.7961 135.61 46.8803 135.585 46.9927H104.464C109.944 49.7729 115.449 52.3565 120.979 54.9401C126.485 57.4956 131.99 60.0511 137.495 62.5786L137.47 62.6347Z" fill="black"/>
<path d="M91.5677 9.22144C88.7774 9.4461 85.9619 9.67076 83.1716 9.9235C80.0042 10.2324 76.8619 10.6537 73.9962 12.3667C72.7644 13.0968 71.4572 13.6304 70.2003 14.2763C63.8152 17.5901 57.5055 21.1285 51.9249 26.0149C49.7881 27.8683 47.7771 29.9184 46.5202 32.6705C45.1124 35.7315 45.5398 38.5959 47.9028 40.7864C49.1345 41.9378 50.5925 42.9488 52.0757 43.6508C61.4522 48.0598 70.8539 52.3845 80.2556 56.7093C82.5431 57.7483 84.8558 58.7031 87.1685 59.686C87.0429 59.349 86.8418 59.1805 86.6406 59.0401C82.1661 55.7545 77.6412 52.525 73.1917 49.155C70.1752 46.8803 67.1334 44.5776 64.3431 41.9659C61.8293 39.6069 60.3964 36.4897 61.3517 32.6424C61.9047 30.3958 63.0611 28.5142 64.4688 26.8293C66.8066 23.9929 69.597 21.7463 72.513 19.7244C78.5462 15.54 85.0318 12.3667 91.5929 9.24952L91.5677 9.22144Z" fill="black"/>
<path d="M74.9263 11.131V11.0468C72.2114 11.6365 69.4713 12.1701 66.7815 12.816C57.8072 15.0064 49.0843 18.0674 41.0401 23.0942C36.1884 26.1272 31.7389 29.7217 28.4459 34.8328C23.6947 42.1624 23.7199 50.1379 28.6721 57.2709C30.1301 59.3771 31.8646 61.3148 33.6997 62.9997C39.6575 68.5039 46.5956 71.9862 53.8605 74.7664C56.7765 75.8897 59.7428 76.8164 62.7091 77.8555C62.6086 77.4342 62.4326 77.2377 62.2315 77.0973C56.9274 72.9972 51.5729 68.9533 46.2939 64.797C42.9254 62.1573 39.4815 59.5737 36.3895 56.5407C30.8591 51.1769 30.3815 44.4652 34.6801 37.8376C36.6409 34.8328 39.0541 32.3896 41.6937 30.143C47.7017 25.0319 54.3381 21.1004 61.2009 17.6462C65.7509 15.3434 70.3763 13.2653 74.9766 11.1029L74.9263 11.131Z" fill="black"/>
<path d="M97.2239 43.7912C97.2741 43.707 97.2993 43.6227 97.3496 43.5385C96.9976 43.2296 96.6708 42.9487 96.3189 42.6398C92.875 39.7473 89.4562 36.8548 86.0123 33.9342C81.6131 30.1992 81.3366 26.0149 85.1827 21.5778C85.2581 21.4936 85.3335 21.4093 85.4089 21.3251C88.878 17.5339 93.0761 15.0065 97.3998 12.7037C99.6623 11.4961 101.975 10.4009 104.313 9.22143C98.3048 8.91252 92.3471 8.37895 87.0681 12.4229C86.6156 12.7598 86.0877 12.9845 85.61 13.2653C81.789 15.4839 77.9932 17.7867 74.7755 21.0442C73.7197 22.1114 72.7393 23.3751 71.96 24.7512C70.7283 26.9416 71.0802 29.0759 72.7896 30.7889C73.4683 31.4629 74.2476 32.0527 75.052 32.4739C80.0294 35.1137 85.0067 37.7254 90.0092 40.2809C92.3722 41.5165 94.7855 42.6118 97.1987 43.7912H97.2239Z" fill="black"/>
<path d="M137.47 62.6347C131.965 60.0792 126.46 57.5517 120.954 54.9962C115.449 52.4407 109.919 49.829 104.439 47.0488H135.56C135.585 46.9365 135.61 46.8522 135.635 46.7399C135.208 46.5152 134.78 46.2906 134.353 46.0659C121.834 40.1404 109.29 34.2431 96.7714 28.3176C94.9615 27.4471 93.2018 26.4642 91.4924 25.397C89.2802 24.021 88.8277 21.9429 90.5623 19.8647C92.0957 18.0394 93.8554 16.3544 95.7659 15.0626C98.8076 13.0126 102.05 11.2995 105.243 9.50223C105.645 9.27756 106.148 9.19332 106.6 9.2214C118.918 9.8673 131.06 11.7769 142.875 15.9612C150.291 18.601 157.379 21.9709 163.664 27.1943C167.586 30.4519 171.004 34.215 172.865 39.3822C175.253 46.0659 174.071 52.2441 170.376 57.9168C166.857 63.3648 162.03 67.0998 156.801 70.217C149.888 74.3171 142.523 77.013 134.931 78.9507C134.504 79.063 133.976 79.0069 133.574 78.8384C120.904 73.6431 108.26 68.4478 95.5899 63.2525C95.5648 63.2525 95.5396 63.1963 95.3637 62.9717H137.395C137.395 62.8593 137.42 62.747 137.445 62.6628L137.47 62.6347Z" fill="black"/>
<path d="M91.5677 9.22144C85.0067 12.3386 78.521 15.54 72.4879 19.6963C69.5719 21.7182 66.7815 23.9649 64.4437 26.8012C63.0359 28.4862 61.8796 30.3677 61.3266 32.6143C60.3964 36.4897 61.8042 39.6069 64.318 41.9378C67.1083 44.5495 70.15 46.8242 73.1666 49.127C77.6161 52.4969 82.1158 55.7264 86.6155 59.0121C86.8166 59.1525 87.0177 59.321 87.1434 59.658C84.8307 58.6751 82.518 57.7203 80.2304 56.6812C70.8288 52.3565 61.4271 48.0317 52.0506 43.6227C50.5674 42.9207 49.1346 41.9097 47.8776 40.7583C45.5147 38.5398 45.1125 35.6753 46.495 32.6424C47.752 29.8903 49.763 27.8683 51.8997 25.9868C57.4804 21.1285 63.7901 17.5901 70.1752 14.2482C71.4321 13.6023 72.7393 13.0688 73.971 12.3386C76.8368 10.6256 79.9791 10.2043 83.1465 9.89543C85.9368 9.64268 88.7523 9.41802 91.5426 9.19336L91.5677 9.22144Z" fill="black"/>
<path d="M74.9263 11.1311C70.326 13.2935 65.7006 15.3997 61.1506 17.6744C54.2879 21.1286 47.6514 25.0601 41.6434 30.1712C39.029 32.3897 36.5906 34.861 34.6298 37.8658C30.3312 44.4653 30.8088 51.177 36.3392 56.5689C39.4312 59.5738 42.8751 62.1855 46.2436 64.8252C51.5227 68.9815 56.8771 73.0254 62.1812 77.1254C62.3823 77.2659 62.5583 77.4624 62.6589 77.8837C59.7177 76.8727 56.7263 75.9179 53.8102 74.7946C46.5704 72.0144 39.6072 68.5321 33.6494 63.0279C31.8143 61.3149 30.0798 59.4053 28.6218 57.2991C23.6696 50.1661 23.6445 42.1906 28.3956 34.861C31.6887 29.778 36.1381 26.1554 40.9898 23.1224C49.0591 18.0956 57.7569 15.0065 66.7312 12.8442C69.4462 12.1983 72.1611 11.6647 74.876 11.075V11.1592L74.9263 11.1311Z" fill="black"/>
<path d="M97.2238 43.7913C94.8357 42.6399 92.4224 41.5166 90.0343 40.281C85.0318 37.6974 80.0545 35.1138 75.0771 32.474C74.2727 32.0527 73.4934 31.463 72.8147 30.789C71.1053 29.076 70.7533 26.9136 71.9851 24.7512C72.7644 23.4033 73.7448 22.1396 74.8006 21.0443C78.0183 17.7867 81.8141 15.484 85.6351 13.2654C86.1128 12.9846 86.6407 12.788 87.0931 12.4229C92.3721 8.37903 98.3048 8.88452 104.338 9.22151C101.975 10.401 99.6622 11.4681 97.4249 12.7038C93.1012 15.0346 88.9031 17.534 85.434 21.3252C85.3586 21.4094 85.2832 21.4937 85.2078 21.5779C81.3365 26.015 81.613 30.2274 86.0373 33.9343C89.4813 36.8268 92.9 39.7193 96.344 42.6399C96.6959 42.9207 97.0227 43.2297 97.3746 43.5386C97.3244 43.6228 97.2992 43.7071 97.2489 43.7913H97.2238Z" fill="black"/>
<path d="M153.735 101.387C151.649 101.303 150.518 99.899 150.593 97.6805C150.643 96.2483 150.794 94.8441 150.87 93.4119C150.995 91.3619 151.096 89.3118 151.222 87.2056H147.325C147.099 90.6879 146.822 94.0859 146.672 97.512C146.521 100.938 148.13 103.269 151.121 104.055C153.786 104.757 156.501 104.729 159.19 104.224C162.71 103.55 164.721 101.387 165.173 98.0736C165.299 97.1188 165.324 96.1359 165.374 95.153C165.525 92.5133 165.676 89.9016 165.852 87.1214C164.771 87.1214 163.791 87.1495 162.81 87.1214C162.081 87.0933 161.83 87.4022 161.805 88.1885C161.755 89.7331 161.654 91.2776 161.553 92.8222C161.428 94.6195 161.377 96.3887 161.126 98.1579C160.824 100.264 158.914 101.752 157.556 101.359C157.883 96.6414 158.21 91.9797 158.537 87.2618H154.59C154.414 89.6769 154.238 92.0078 154.087 94.3105C153.937 96.6695 153.811 99.0004 153.66 101.415L153.735 101.387Z" fill="black"/>
<path d="M174.273 104.055C175.103 104.055 175.782 104.055 176.486 104.055C179.477 104.027 181.664 102.398 182.443 99.1689C182.921 97.1751 183.097 94.9846 182.996 92.9346C182.82 89.7332 180.759 87.4865 177.893 87.29C174.902 87.0653 171.91 87.1776 168.894 87.1495C168.542 87.1495 168.19 87.2057 167.687 87.2338C167.687 88.2448 167.461 89.3119 167.788 90.0421C167.964 90.4352 169.095 90.3229 169.874 90.4633C169.045 94.9846 168.19 99.4498 167.36 104.055C168.517 104.055 169.522 104.027 170.553 104.055C171.257 104.083 171.559 103.887 171.684 103.044C172.338 99.1409 173.042 95.2374 173.771 91.3339C173.846 90.9969 174.022 90.4914 174.248 90.3791C176.36 89.4523 178.648 90.9407 178.924 93.4681C179.05 94.5915 179.025 95.7428 178.849 96.8662C178.396 99.9833 177.592 100.742 174.776 100.994C174.676 100.994 174.575 101.05 174.399 101.135C174.374 102.033 174.324 102.96 174.273 104.055Z" fill="black"/>
<path d="M83.2734 87.3461C83.4745 91.1373 83.6504 94.9004 83.8264 98.6915C83.8767 100.124 83.3488 100.77 82.0667 100.966C81.7902 101.022 81.5137 101.05 81.2372 101.079C81.1618 102.09 81.0863 103.016 81.0109 104.055C81.7399 104.055 82.3935 104.055 83.0471 104.055C86.1894 104.027 88.0999 101.584 87.8234 98.1018C87.6223 95.5743 87.572 93.0188 87.4714 90.2948C88.7283 90.2948 89.8596 90.2948 90.9656 90.2948C92.7002 90.3229 93.5549 91.2777 93.4794 93.1873C93.4292 94.9003 93.2783 96.5853 93.1526 98.2984C93.027 100.18 92.9264 102.061 92.8259 103.943H96.8982C97.1245 100.236 97.401 96.6134 97.577 93.0188C97.7278 90.014 96.2698 87.6831 93.6051 87.4304C90.2366 87.1214 86.843 87.3461 83.2985 87.3461H83.2734Z" fill="black"/>
<path d="M74.8269 103.971H78.8741C79.1255 100.236 79.402 96.6133 79.578 92.9625C79.7288 89.8454 78.0194 87.5426 75.2291 87.3179C72.4388 87.0933 69.5981 87.1775 66.7827 87.1213C66.5062 87.1213 66.2045 87.1775 65.8777 87.2337C65.5258 92.8502 65.1738 98.3825 64.8219 103.971H68.8189C68.844 103.69 68.8943 103.494 68.9194 103.297C69.1959 99.2811 69.4725 95.2653 69.7238 91.2495C69.7741 90.4913 70.0004 90.2385 70.6288 90.2947C71.4584 90.3228 72.3131 90.2947 73.1426 90.2947C74.7263 90.3509 75.581 91.3337 75.5056 93.103C75.3799 95.9112 75.1537 98.6914 74.9777 101.5C74.9274 102.286 74.9023 103.1 74.852 103.943L74.8269 103.971Z" fill="black"/>
<path d="M51.373 90.1264C51.4987 90.1825 51.5741 90.2387 51.6244 90.2387C52.9065 90.2387 54.1885 90.2387 55.4706 90.2949C57.1297 90.351 57.9844 91.2777 57.909 93.1312C57.8335 95.2936 57.5822 97.4279 57.557 99.5902C57.557 100.742 57.18 101.022 56.1996 100.994C54.3142 100.91 52.4288 100.994 50.4429 100.994V103.971H63.0874C63.1628 102.96 63.2383 102.062 63.3137 101.079C62.6852 101.022 62.1573 100.966 61.554 100.91C61.7048 98.1861 61.8808 95.5463 62.0065 92.9346C62.1322 89.8736 60.5233 87.7112 57.7581 87.3462C56.3755 87.1777 54.9929 87.1496 53.6103 87.1777C51.0462 87.2058 51.373 86.5318 51.2976 89.9017C51.2976 89.9859 51.3479 90.0421 51.373 90.1825V90.1264Z" fill="black"/>
<path d="M132.544 87.2336H119.9C119.824 88.2727 119.749 89.1994 119.648 90.3227H126.31C126.184 92.7659 126.058 94.9845 125.933 97.2311C125.807 99.4777 125.656 101.724 125.505 103.999H129.452C129.502 103.718 129.603 103.494 129.628 103.269C129.854 99.6462 130.106 96.0516 130.307 92.4289C130.407 90.4632 130.382 90.4632 132.066 90.2104C132.117 90.2104 132.192 90.1262 132.293 90.0138C132.368 89.1433 132.443 88.2165 132.544 87.2056V87.2336Z" fill="black"/>
<path d="M16.6321 90.2947C19.0453 90.2947 21.3078 90.2947 23.5702 90.2947C25.2545 90.2947 26.084 91.1933 26.0337 93.0749C25.9835 94.816 25.8326 96.5571 25.7321 98.2983C25.6315 100.18 25.5058 102.061 25.4053 103.971H29.4525C29.6788 100.264 29.9804 96.6414 30.1313 92.9906C30.2821 89.7611 28.5476 87.5145 25.6064 87.2898C22.8412 87.0933 20.0509 87.1494 17.2605 87.1213C17.1348 87.1213 17.0091 87.2337 16.8583 87.2898C16.7829 88.2446 16.7075 89.1714 16.6069 90.2947H16.6321Z" fill="black"/>
<path d="M112.71 103.999C112.961 100.236 113.238 96.6134 113.389 92.9627C113.515 89.9859 112.207 87.8797 109.568 87.4866C106.476 87.0372 103.308 87.1496 100.141 87.0092C100.04 88.2448 99.9902 89.1996 99.9148 90.3229C102.228 90.3229 104.44 90.3229 106.677 90.3229C108.587 90.3229 109.367 91.1654 109.291 93.2716C109.241 94.9846 109.09 96.6696 108.99 98.3826C108.864 100.236 108.763 102.09 108.638 103.999H112.71Z" fill="black"/>
<path d="M41.8708 103.999C42.0971 100.152 42.3484 96.3607 42.4993 92.5696C42.5998 90.2387 41.4937 88.4695 39.533 87.6832C37.0191 86.7003 34.4299 87.2339 31.8658 87.1215C31.7904 87.9921 31.7653 88.6942 31.6647 89.3681C31.5642 90.0983 31.8156 90.323 32.444 90.2949C33.726 90.2949 35.0081 90.2668 36.2901 90.2949C37.6727 90.351 38.452 91.2778 38.452 92.7942C38.452 93.8895 38.3515 94.9847 38.3012 96.0799C38.1504 98.6916 37.9744 101.303 37.8236 103.971H41.9211L41.8708 103.999Z" fill="black"/>
<path d="M144.485 103.999C144.535 103.437 144.585 102.932 144.61 102.454C144.812 99.4496 144.962 96.4448 145.189 93.468C145.465 90.1262 143.756 87.6549 140.764 87.2898C139.432 87.1213 138.074 87.1213 136.717 87.1213C134.304 87.1213 134.304 87.1213 134.354 89.8173C134.354 89.9296 134.404 90.0419 134.455 90.1262C134.53 90.1824 134.605 90.2385 134.681 90.2385C136.038 90.2385 137.396 90.2385 138.728 90.2947C140.362 90.3509 141.217 91.3618 141.141 93.1591C141.066 94.6194 140.94 96.0797 140.84 97.54C140.714 99.6743 140.613 101.809 140.488 103.971H144.51L144.485 103.999Z" fill="black"/>
<path d="M48.0548 103.999C48.4067 98.3825 48.7586 92.8221 49.1106 87.1213C47.9793 87.1213 46.999 87.1775 46.0186 87.1213C45.189 87.0652 44.9879 87.4583 44.9376 88.3289C44.7868 91.5303 44.5354 94.7318 44.3595 97.9332C44.2338 99.9271 44.1332 101.949 44.0327 104.027H48.0548V103.999Z" fill="black"/>
<path d="M15.7774 103.971H19.8246C20.0258 100.685 20.252 97.4839 20.4531 94.1702H16.4059C16.2048 97.4558 15.9785 100.657 15.7774 103.971Z" fill="black"/>
<path d="M103.107 103.999C103.308 100.685 103.535 97.456 103.736 94.1984H99.6634C99.4623 97.5121 99.2612 100.714 99.0601 103.999H103.107Z" fill="black"/>
<path d="M29.6788 113.772C29.4777 116.889 29.3017 119.978 29.1006 123.124H33.0473C33.2484 120.006 33.4495 116.917 33.6506 113.772H29.6788Z" fill="black"/>
<path d="M130.483 113.772C130.282 116.945 130.106 120.006 129.93 123.067H133.876C134.078 119.922 134.279 116.889 134.48 113.772H130.508H130.483Z" fill="black"/>
<path d="M12.8362 130.762C13.163 125.089 13.515 119.445 13.8418 113.912C17.0595 113.912 20.1514 113.688 23.1932 113.969C26.1092 114.249 27.5421 116.524 27.3661 119.81C27.1398 123.46 26.9136 127.111 26.7125 130.762H12.8614H12.8362ZM17.0092 127.448C18.8443 127.448 20.6039 127.476 22.3385 127.42C22.5647 127.42 22.9166 126.858 22.9418 126.55C23.1429 124.415 23.2434 122.253 23.3691 120.119C23.4948 117.872 22.6401 116.889 20.6291 116.833C20.3777 116.833 20.1263 116.833 19.8498 116.833C17.7382 116.833 17.6879 116.833 17.4868 119.22C17.2606 121.916 17.16 124.612 16.984 127.504L17.0092 127.448Z" fill="black"/>
<path d="M89.7338 130.762C89.8595 129.723 89.9601 128.684 90.0606 127.645C92.7755 126.915 92.7253 126.915 92.499 123.713C92.2728 120.456 92.1974 117.17 92.0465 113.716C92.7504 113.716 93.3537 113.716 93.957 113.716C96.6217 113.772 99.3115 113.631 101.951 113.968C104.716 114.305 106.149 116.524 105.998 119.585C105.797 123.32 105.546 127.027 105.345 130.762H101.398C101.624 127.28 101.825 123.797 102.052 120.315C102.202 117.984 101.373 116.889 99.2612 116.805C98.5573 116.805 97.8786 116.833 97.1747 116.805C96.3954 116.749 96.1189 116.973 96.1692 117.956C96.3703 120.512 96.4457 123.067 96.496 125.623C96.5463 127.982 95.2139 129.835 93.1778 130.453C92.9012 130.537 92.6499 130.65 92.3733 130.762H89.7338Z" fill="black"/>
<path d="M135.862 130.762C136.239 125.145 136.616 119.501 137.019 113.8H140.965C140.689 118.293 140.437 122.758 140.161 127.224C143.806 128.122 145.641 126.802 146.219 123.32C146.37 122.365 146.42 121.382 146.445 120.4C146.471 117.816 145.892 117.17 143.152 116.636C143.203 115.71 143.228 114.755 143.278 113.604C144.635 113.744 145.892 113.66 147.074 113.997C149.035 114.558 149.965 116.299 150.241 118.378C150.568 120.652 150.543 122.927 149.839 125.117C148.859 128.15 146.998 130.06 144.032 130.509C143.856 130.509 143.73 130.678 143.555 130.762H135.862Z" fill="black"/>
<path d="M113.892 130.762C114.193 126.269 114.495 121.775 114.797 117.282C114.872 116.159 114.947 115.008 115.048 113.716C115.651 113.716 116.229 113.716 116.808 113.716C119.296 113.772 121.81 113.603 124.249 113.94C127.215 114.334 128.648 116.636 128.396 119.95C128.145 123.545 127.944 127.167 127.718 130.762H123.771C123.997 127.139 124.249 123.545 124.45 119.95C124.55 118.012 123.746 116.973 121.986 116.833C121.257 116.777 120.528 116.861 119.799 116.777C119.02 116.692 118.768 117.114 118.743 117.9C118.668 119.529 118.592 121.158 118.467 122.758C118.266 125.426 118.065 128.094 117.863 130.762H113.917H113.892Z" fill="black"/>
<path d="M151.448 130.762V127.504H158.336C158.461 125.623 158.612 123.882 158.738 122.112C158.788 121.41 158.788 120.736 158.839 120.034C158.989 118.069 158.26 117.058 156.476 116.833C155.822 116.749 155.168 116.777 154.515 116.777C153.861 116.777 153.208 116.777 152.453 116.777V113.547C154.842 113.716 157.179 113.631 159.442 114.109C161.755 114.558 162.936 116.58 162.835 119.192C162.785 121.214 162.609 123.236 162.484 125.258C162.433 125.932 162.433 126.606 162.383 127.28C164.017 127.617 164.017 127.617 163.942 129.414C163.942 129.863 163.942 130.313 163.942 130.762H151.423H151.448Z" fill="black"/>
<path d="M72.3633 130.762C72.4388 129.723 72.5142 128.656 72.6147 127.448C74.5001 127.448 76.3352 127.392 78.1451 127.448C79.1004 127.476 79.4774 127.223 79.5026 126.072C79.5026 124.05 79.7791 122.028 79.8796 120.006C79.9802 117.9 79.1758 116.945 77.2653 116.805C76.6368 116.749 76.0335 116.805 75.4051 116.805C74.8269 116.805 74.2487 116.805 73.5448 116.805C73.6202 115.738 73.6957 114.783 73.7962 113.631C75.9078 113.744 78.0194 113.631 80.0305 113.997C82.7705 114.474 84.1531 116.861 83.9017 119.922C83.7006 122.281 83.6001 124.612 83.4744 126.971C83.4744 127.083 83.4995 127.195 83.5247 127.364C84.0274 127.42 84.5302 127.504 85.1335 127.589C85.0581 128.684 84.9827 129.723 84.9073 130.762H72.3885H72.3633Z" fill="black"/>
<path d="M34.3796 130.762C34.4047 127.448 34.4047 127.392 37.3207 127.476C39.005 127.504 40.6138 127.392 41.4937 125.539C42.5746 123.264 42.7506 120.877 41.7451 118.518C41.2172 117.282 40.1613 116.889 39.005 116.861C37.7984 116.833 36.6169 116.861 35.3097 116.861C35.3097 115.934 35.2845 115.148 35.3348 114.334C35.3348 114.109 35.6868 113.772 35.8627 113.772C37.8738 113.856 39.91 113.772 41.8707 114.165C44.6611 114.755 46.094 116.833 46.3705 120.231C46.5464 122.45 46.1945 124.612 45.2393 126.606C44.1332 128.852 42.4489 130.2 40.1362 130.537C39.91 130.565 39.6837 130.706 39.4575 130.79H34.4047L34.3796 130.762Z" fill="black"/>
<path d="M64.8973 130.762C65.1487 126.185 65.4001 121.607 65.6766 116.861H59.191C59.2664 115.738 59.3167 114.755 59.3921 113.772H71.6846C71.6344 114.783 71.6092 115.738 71.5589 116.664C69.7993 116.917 69.7239 116.917 69.5982 118.827C69.2965 122.787 69.0954 126.774 68.844 130.734H64.8973V130.762Z" fill="black"/>
<path d="M174.952 130.762C175.153 127.28 175.354 123.797 175.606 120.315C175.782 117.9 174.952 116.833 172.74 116.805C170.704 116.805 168.642 116.805 166.43 116.805C166.506 115.766 166.556 114.839 166.631 113.716C168.215 113.716 169.749 113.716 171.257 113.716C172.69 113.744 174.123 113.716 175.505 113.94C178.22 114.39 179.653 116.355 179.552 119.445C179.402 123.208 179.125 126.999 178.899 130.762H174.952Z" fill="black"/>
<path d="M53.2583 130.762C53.4846 127.28 53.6605 123.769 53.9119 120.287C54.0628 117.928 53.2583 116.861 51.1216 116.805C49.8898 116.777 48.6329 116.805 47.2755 116.805C47.3257 115.766 47.3509 114.811 47.4011 113.604C49.6887 113.716 51.926 113.66 54.113 113.997C56.5263 114.39 57.9592 116.468 57.8586 119.192C57.7078 123.039 57.4313 126.915 57.205 130.762H53.2583Z" fill="black"/>
<path d="M107.506 130.762C107.833 125.089 108.185 119.445 108.512 113.772H112.484C112.132 119.473 111.78 125.117 111.453 130.762H107.506Z" fill="black"/>
<path d="M181.111 130.762C181.438 125.117 181.765 119.445 182.117 113.66H186.164V115.12C186.038 116.299 185.887 117.507 185.812 118.686C185.56 122.702 185.309 126.746 185.083 130.762H181.136H181.111Z" fill="black"/>
<path d="M165.5 130.762C165.726 127.476 165.953 124.191 166.179 120.821H170.151C169.924 124.163 169.698 127.448 169.472 130.762H165.525H165.5Z" fill="black"/>
<path d="M185.058 130.762C185.309 126.746 185.535 122.702 185.787 118.686C185.862 117.507 186.013 116.299 186.139 115.12V130.762H185.032H185.058Z" fill="black"/>
<path d="M153.736 101.388C153.886 98.9724 154.012 96.6134 154.163 94.2826C154.314 91.9798 154.49 89.6489 154.666 87.2338H158.612C158.286 91.9236 157.959 96.6135 157.632 101.331C158.964 101.725 160.9 100.236 161.202 98.1299C161.453 96.3607 161.503 94.5634 161.629 92.7942C161.73 91.2497 161.83 89.7051 161.88 88.1606C161.905 87.4023 162.157 87.0653 162.886 87.0934C163.866 87.1496 164.847 87.0934 165.928 87.0934C165.752 89.8736 165.601 92.4853 165.45 95.1251C165.4 96.108 165.375 97.0909 165.249 98.0457C164.796 101.359 162.785 103.522 159.266 104.196C156.601 104.701 153.861 104.729 151.197 104.027C148.18 103.241 146.596 100.938 146.747 97.484C146.898 94.086 147.175 90.688 147.401 87.1777H151.297C151.171 89.2839 151.071 91.3339 150.945 93.3839C150.87 94.7881 150.719 96.2203 150.669 97.6525C150.593 99.871 151.725 101.275 153.811 101.359L153.736 101.388Z" fill="black"/>
<path d="M174.273 104.055C174.324 102.96 174.349 102.033 174.399 101.135C174.575 101.079 174.676 100.994 174.776 100.994C177.592 100.742 178.396 99.9833 178.849 96.8662C179.025 95.7428 179.025 94.5915 178.924 93.4681C178.648 90.9407 176.36 89.4523 174.248 90.379C173.997 90.4914 173.846 90.9969 173.771 91.3339C173.042 95.2374 172.338 99.1408 171.684 103.044C171.533 103.887 171.257 104.111 170.553 104.055C169.547 103.999 168.517 104.055 167.36 104.055C168.215 99.4778 169.045 94.9846 169.874 90.4633C169.07 90.3229 167.939 90.4352 167.788 90.0421C167.461 89.2838 167.687 88.2448 167.687 87.2338C168.19 87.2057 168.542 87.1495 168.894 87.1495C171.885 87.1776 174.902 87.0934 177.893 87.2899C180.759 87.4865 182.846 89.7331 182.996 92.9346C183.097 95.0127 182.921 97.1751 182.443 99.1689C181.689 102.398 179.477 103.999 176.486 104.055C175.807 104.055 175.103 104.055 174.273 104.055Z" fill="black"/>
<path d="M83.2733 87.3461C86.8178 87.3461 90.2366 87.0934 93.5799 87.4304C96.2446 87.6831 97.7026 90.014 97.5518 93.0188C97.3758 96.6415 97.0993 100.236 96.873 103.943H92.8006C92.9012 102.061 93.0269 100.18 93.1274 98.2984C93.228 96.5853 93.3788 94.9004 93.4542 93.1873C93.5297 91.2777 92.675 90.351 90.9404 90.2948C89.8092 90.2948 88.7031 90.2948 87.4462 90.2948C87.5719 92.9907 87.5971 95.5463 87.7982 98.1018C88.0747 101.584 86.1642 104.027 83.0219 104.055C82.3683 104.055 81.7147 104.055 80.9857 104.055C81.0611 103.016 81.1365 102.09 81.212 101.079C81.4885 101.05 81.765 100.994 82.0415 100.966C83.3236 100.77 83.8515 100.124 83.8012 98.6915C83.6504 94.9284 83.4241 91.1373 83.2482 87.3461H83.2733Z" fill="black"/>
<path d="M74.8269 103.971C74.8772 103.129 74.9023 102.314 74.9526 101.528C75.1286 98.7196 75.3548 95.9394 75.4805 93.1311C75.5559 91.3619 74.7264 90.379 73.1175 90.3229C72.288 90.2948 71.4333 90.3229 70.6037 90.3229C69.9501 90.2948 69.7239 90.5475 69.6988 91.2777C69.4725 95.2935 69.1708 99.3093 68.8943 103.325C68.8943 103.522 68.8441 103.718 68.7938 103.999H64.7968C65.1487 98.3826 65.5007 92.8503 65.8526 87.2619C66.2045 87.2338 66.4811 87.1495 66.7576 87.1495C69.5731 87.2057 72.3885 87.1215 75.204 87.3461C77.9943 87.5708 79.7037 89.8736 79.5529 92.9907C79.3769 96.6415 79.1004 100.292 78.849 103.999H74.8018L74.8269 103.971Z" fill="black"/>
<path d="M51.373 90.1262C51.3479 89.9858 51.2976 89.9297 51.2976 89.8454C51.373 86.4755 51.0462 87.1495 53.6103 87.1214C54.9929 87.1214 56.4007 87.1214 57.7581 87.2899C60.5233 87.6269 62.1322 89.8173 62.0065 92.8783C61.8808 95.5181 61.7048 98.1298 61.554 100.854C62.1573 100.91 62.6852 100.966 63.3137 101.022C63.2383 102.005 63.1628 102.932 63.0874 103.915H50.4429V100.938C52.4037 100.938 54.3142 100.882 56.1996 100.938C57.18 100.966 57.5319 100.685 57.557 99.5339C57.6073 97.3716 57.8335 95.2373 57.909 93.0749C57.9844 91.2496 57.1297 90.2947 55.4706 90.2386C54.1885 90.1824 52.9065 90.2105 51.6244 90.1824C51.549 90.1824 51.4987 90.1262 51.373 90.0701V90.1262Z" fill="black"/>
<path d="M132.544 87.2338C132.469 88.2447 132.368 89.1715 132.293 90.042C132.192 90.1263 132.142 90.2105 132.066 90.2386C130.357 90.4914 130.407 90.4914 130.307 92.4571C130.106 96.0798 129.854 99.6744 129.628 103.297C129.628 103.522 129.527 103.746 129.452 104.027H125.505C125.656 101.753 125.782 99.5059 125.933 97.2593C126.058 95.0408 126.184 92.7941 126.31 90.3509H119.648C119.749 89.2276 119.824 88.3009 119.9 87.2618H132.544V87.2338Z" fill="black"/>
<path d="M16.6321 90.2947C16.7326 89.1714 16.808 88.2446 16.8835 87.2898C17.0343 87.2337 17.16 87.1213 17.2857 87.1213C20.076 87.1494 22.8412 87.0652 25.6315 87.2898C28.5727 87.5145 30.3072 89.7611 30.1564 92.9906C29.9804 96.6414 29.7039 100.264 29.4777 103.971H25.4304C25.531 102.061 25.6567 100.18 25.7572 98.2983C25.8578 96.5571 26.0337 94.816 26.084 93.0749C26.1343 91.1933 25.3299 90.2947 23.6205 90.2947C21.3581 90.2947 19.0956 90.2947 16.6824 90.2947H16.6321Z" fill="black"/>
<path d="M112.71 103.999H108.638C108.763 102.09 108.864 100.236 108.99 98.3826C109.09 96.6696 109.241 94.9846 109.291 93.2716C109.367 91.1373 108.587 90.3229 106.677 90.3229C104.465 90.3229 102.228 90.3229 99.9148 90.3229C99.9902 89.1996 100.066 88.2448 100.141 87.0092C103.334 87.1496 106.476 87.0372 109.568 87.4866C112.207 87.8797 113.515 89.9859 113.389 92.9627C113.238 96.6134 112.936 100.264 112.71 103.999Z" fill="black"/>
<path d="M41.8708 103.999H37.7733C37.9241 101.331 38.1 98.7195 38.2509 96.1079C38.3263 95.0126 38.4017 93.9174 38.4017 92.8222C38.4017 91.3338 37.6224 90.4071 36.2398 90.3228C34.9578 90.2667 33.6757 90.2947 32.3937 90.3228C31.7904 90.3228 31.5139 90.0982 31.6144 89.3961C31.715 88.7221 31.7401 88.02 31.8155 87.1495C34.3796 87.2618 36.9688 86.7282 39.4826 87.7111C41.4686 88.4974 42.5495 90.2386 42.4489 92.5975C42.2981 96.3887 42.0467 100.18 41.8205 104.027L41.8708 103.999Z" fill="black"/>
<path d="M144.485 103.999H140.463C140.588 101.809 140.689 99.6745 140.814 97.5683C140.89 96.108 141.041 94.6477 141.116 93.1874C141.192 91.362 140.362 90.351 138.703 90.3229C137.345 90.2949 135.988 90.2949 134.656 90.2668C134.58 90.2668 134.53 90.2106 134.429 90.1545C134.404 90.0702 134.354 89.9579 134.329 89.8455C134.279 87.1496 134.279 87.1215 136.692 87.1496C138.049 87.1496 139.407 87.1496 140.739 87.3181C143.756 87.6832 145.44 90.1825 145.163 93.4963C144.912 96.4731 144.761 99.4779 144.585 102.483C144.56 102.96 144.51 103.438 144.46 104.027L144.485 103.999Z" fill="black"/>
<path d="M48.0548 103.999H44.0327C44.1332 101.921 44.2338 99.9272 44.3595 97.9052C44.5606 94.7038 44.7868 91.5024 44.9376 88.301C44.9879 87.4304 45.189 87.0372 46.0186 87.0934C46.999 87.1496 47.9793 87.0934 49.1106 87.0934C48.7586 92.8223 48.4067 98.3546 48.0548 103.971V103.999Z" fill="black"/>
<path d="M15.7774 103.971C15.9785 100.685 16.2048 97.4558 16.4059 94.1702H20.4531C20.252 97.4558 20.0258 100.685 19.8246 103.971H15.7774Z" fill="black"/>
<path d="M103.107 103.999H99.0601C99.2612 100.742 99.4623 97.5121 99.6634 94.1984H103.736C103.535 97.456 103.334 100.685 103.107 103.999Z" fill="black"/>
<path d="M29.6788 113.772H33.6506C33.4495 116.917 33.2484 119.978 33.0473 123.124H29.1006C29.3017 120.006 29.4777 116.917 29.6788 113.772Z" fill="black"/>
<path d="M130.483 113.772H134.455C134.253 116.889 134.052 119.95 133.851 123.067H129.905C130.106 119.978 130.282 116.917 130.458 113.772H130.483Z" fill="black"/>
</svg>
